<?xml version="1.0" encoding="UTF-8" standalone="no"?>
<svg
   class="img-fluid"
   id="outputsvg"
   width="1320"
   height="1320"
   viewBox="0 0 13200 13200"
   version="1.1"
   xmlns="http://www.w3.org/2000/svg"
   xmlns:svg="http://www.w3.org/2000/svg">
  <defs
     id="defs2731">
    <rect
       x="486"
       y="-818"
       width="1782"
       height="428"
       id="rect138375" />
    <rect
       x="130.5"
       y="1191"
       width="1308.5"
       height="298.5"
       id="rect14086" />
  </defs>
  <rect
     style="fill:#000000;fill-opacity:1;stroke-width:10"
     id="rect1550"
     width="13534.842"
     height="13583.881"
     x="-147.11783"
     y="-147.11783" />
  <g
     id="g1424">
    <rect
       style="fill:#ffffff;stroke-width:10;fill-opacity:1"
       id="rect1252"
       width="927.65967"
       height="1099.2971"
       x="6035.918"
       y="2811.5854" />
    <rect
       style="fill:#ffffff;fill-opacity:1;stroke-width:11.1003"
       id="rect1252-9"
       width="1078.8641"
       height="1164.6829"
       x="7594.9585"
       y="2797.2822" />
  </g>
  <g
     id="g55053"
     transform="translate(673.38657)">
    <g
       id="g11324"
       transform="translate(-3010.5138,-1880.7025)">
      <rect
         style="fill:#cdf0ff;fill-opacity:1;stroke:#c6e5a2;stroke-width:10;stroke-opacity:0.742009"
         id="rect10067"
         width="1090"
         height="1190"
         x="10720"
         y="6810" />
      <rect
         style="fill:#cdf0ff;fill-opacity:1;stroke:#c6e5a2;stroke-width:10;stroke-opacity:0.742009"
         id="rect9743"
         width="2590"
         height="1390"
         x="7860"
         y="7650" />
      <path
         style="fill:#cdf0ff;fill-opacity:1;stroke:none;stroke-width:10px;stroke-linecap:butt;stroke-linejoin:miter;stroke-opacity:1"
         d="m 6850,8080 330,110 -528,645 -132,195 -70,-360 200,-450 z"
         id="path10965" />
      <path
         style="fill:#cdf0ff;fill-opacity:1;stroke:none;stroke-width:10px;stroke-linecap:butt;stroke-linejoin:miter;stroke-opacity:1"
         d="m 8370,4550 90,-450 460,-440 310,-130 180,-80 50,-240 560,-380 310,-140 180,-200 120,300 -1830,1410 -330,460 z"
         id="path11172" />
    </g>
    <path
       id="pZOtjTkXo"
       d="m 7129.4862,11013.297 c -19,-2 -84,-9 -144,-14 -305,-30 -649,-116 -896,-224 -544,-239 -971,-626 -1233,-1115.9995 -159,-298 -280,-690 -328,-1065 -18,-133 -20,-196 -17,-377 3,-144 1,-221 -6,-228 -5,-5 -54,-10 -110,-10 -496,-1 -838,-146 -972,-412 -147,-292 -130,-688 45,-1043 122,-246 192,-330 388,-463 33,-23 64,-49 68,-59 4,-10 23,-63 42,-117 77,-220 171,-351 366,-509 119,-96 253,-183 397,-256 155,-79 217,-102 408,-154 142,-38 171,-50 232,-92 38,-26 71,-54 74,-62 7,-17 1,-30 -69,-144 -159,-258 -264,-557 -310,-884 -17,-118 -20,-442 -5,-565 44,-361 155,-674 337,-950 136,-206 331,-412 500,-528 118,-80 276,-162 314,-162 49,0 64,-15 118,-114 137,-254 259,-358 635,-541.00003 183,-89 201,-100 269,-167 97,-96 121,-148 122,-253 0,-69 -4,-86 -27,-127 -34,-56 -106,-122 -173,-155 -88,-44 -107,-76 -63,-107 49,-34.000003 244,-9 400,52 198,76 389,259 477,455 51,113 65,188 65,347 0,184.00003 -15,247.00003 -96,409.00003 -71,140 -75,124 63,221 110,77 266,242 358,378 191,284 294,577 321,917 14,171 17,185 34,185 8,0 56,-36 107,-81 219,-188 345,-240 396,-163 53,82 26,353 -62,621 -49,147 -140,331 -215,433 -130,177 -327,340 -410,340 -35,0 -51,20 -88,108 -17,40 -58,119 -91,176 -34,56 -61,110 -61,119 0,30 197,120 355,162 343,92 638,253 864,470 173,167 284.9999,350 336.9998,550 23,88 27,121 27,270 1,198 -13,289 -72.9999,479 -102.9999,320 -277.9999,631 -493.9999,879 -97,110 -181,180 -284,235 -66,35 -103,65 -209,173 -139,143 -274,251 -395,317 -74,40 -89,54 -70,66 7,4 1104,16 1890.9998,20 147,1 175,3 184,17 16,25 -11,244 -33,272 -18,21 -25,22 -197,22 -98,0 -281,-1 -407.9999,-3 -125.9999,-2 -311.9999,-3 -412.9999,-3 -182,1 -182,1 -194,27 -16,34 4,70 52,98 34,20 49,21 491,21 371.9998,0 458.9998,3 471.9998,14 23,18 24,162 3,180 -8,7 -54,14 -103,17 -448.9998,23 -480.9998,25 -496.9998,43 -7,9 -17,35 -21,58 -5,34 -3,45 15,63 20,20 23,21 407.9998,13 596,-11 654,-10 676,13 28,27 14,304 -16,342 -8,9 -61,11 -232,7 -306,-6 -677.9998,6 -699.9998,24 -21,18 -22,118 -1,148 15,21 18,21 399.9998,20 433,0 424,-2 411,67 -4,19 -11,38 -15,40 -5,3 -64,8 -132,11 -216,9 -212,8 -252,87 -22,43 -22,43 -221,44 -194.9998,1 -199.9998,1 -217.9998,23 -26,33 -22,95.9995 9,130.9995 3,3 119.9998,7 259.9998,10 217,4 257,7 266,21 16,25 -11,157 -34,170 -11,6 -142,12 -319,14 -182.9998,3 -307.9998,8 -319.9998,15 -31,16 -43,48 -36,95 12,79 13,80 199,83 157.9998,3 166.9998,4 190.9998,27 33,30 33,58 1,122 -35,70 -116.9999,144 -189.9998,174 -59,23 -68,23 -452,27 -398,4 -433,1 -433,-33 0,-8 34,-52 76,-97 345,-377 472,-750.9995 408,-1200.9995 -37,-256 -151,-488 -328,-662 -189,-187 -432,-310 -691,-350 -163,-26 -405,-17 -540,19 -116,32 -238,86 -337,152 -137,91 -315,281 -376,401 -12,23 -34,81 -48,130 -24,76 -27,106 -28,228 -1,165 12,221 81,365 88,182 230,289.9995 430,325.9995 178,32 312,-6 428,-119.9995 142,-141 177,-350 76,-456 -30,-32 -45,-40 -74,-40 -42,0 -51,9 -37,44 27,71 -106,114 -205,66 -67,-32 -87,-69 -83,-150 5,-80 27,-127 87,-187 102,-103 259,-139 402,-93 187,60 316,208 355,407 46,232 -66,526.9995 -278,728.9995 -165,158 -302,229 -591,306 -129.071,32.117 -207.737,44.49 -440.232,45.374 -432.9971,1.646 -538.143,-32.749 -774.268,-126.124 -327,-146 -509.5,-284.25 -725.5,-526.2495 -95,-107 -251,-333 -311,-453 -47,-94 -128,-296 -156,-390 -36,-123 -56,-161 -92,-177 -21,-9 -37,-10 -43,-4 -30,30 25,319 96,501 61,153 93,219 165,339 91,151 148,225.9995 263,348.9995 223,239 480,405 791,511 214,72 563,137 785,146 217,9 449,-34 703,-129 336,-126 626,-446 717,-793.9995 95,-360 -29,-724 -288,-848 -222,-107 -476,-81 -658,67 -114,93 -164,203 -157,346 5,99 27,156 84,215 52,54 89,69 179,74 87,5 128,-7 197,-54 62,-44 77,-6 33,83 -32,63 -99,126 -168,159 -62,28 -173,33 -250,9 -162,-49 -284,-185 -343,-381 -32,-105 -19,-274 30,-395 94,-232 302,-409 577,-490 106,-31 369,-38 489,-14 549,111 908,595 851,1147 -7,67 -23,157 -36,202.9995 -152,522 -655,895 -1336,990 -108,15 -538,28 -619,19 z m -3488,-4058.9995 c 71,-131 81,-157 88,-245 9,-120 30,-159 158,-296 68,-73 107,-123 102,-128 -5,-5 -39,-9 -76,-8 -50,0 -79,7 -121,28 -48,23 -62,38 -110,110 -101,155 -173,346 -173,458 0,69 47,160 79,154 8,-2 32,-35 53,-73 z m 3277,-371 c 17,-4 31,-10 31,-15 0,-17 -162,-90 -298,-135 -433,-143 -894,-215 -1077,-169 -131,33 -312,143 -399,243 -29,33 -31,56 -3,27 9,-8 58,-31 109,-50 124,-47 188,-76 216,-96 56,-42 208,-30 562,46 130,28 346,77 375,85 69,20 347,66 411,69 23,0 56,-2 73,-5 z m 1286,-728 c 19,-8 35,-19 35,-25 0,-5 34,-51 75,-103 99,-124 242,-257 296,-277 23,-9 44,-21 46,-27 7,-21 -56,-55 -122,-66 -75,-13 -66,-17 -212,101 -158,127 -351,332 -341,363 3,8 42,20 94,29 49,9 90,17 92,18 1,1 18,-6 37,-13 z m -575,-2012 c 71,-31 145,-106 180,-181 29,-62 60,-217 60,-301 -1,-197 -86,-360 -233,-446 -40,-24 -63,-29 -135,-33 -85,-5 -89,-4 -168,35 -44,22 -97,54 -117,72 -81,71 -165,206 -213,346 -26,72 -24,234 3,294 36,82 119,150 245,199 145,58 271,63 378,15 z m -1643,-67 c 111,-68 165,-170 194,-371 13,-90 13,-90 -20,-185 -64,-184 -129,-274 -235,-328 -69,-35 -159,-42 -223,-18 -96,37 -182,144 -208,260 -7,33 -19,86 -26,117 -16,71 -1,213 30,282 36,83 110,185 156,219 74,53 121,68 201,64 61,-3 80,-9 131,-40 z m -489,-1256 c 128,-172 299,-375 353,-420 35,-29 125,-113 200,-186 121,-116 136,-135 132,-158 -6,-32 -20,-34 -90,-8 -131,48 -313,212 -490,442 -46,60 -122,196 -123,219 0,8 -9,33 -20,55 -41,84 -13,125 38,56 z m 1115,-1059 c 29,-26 77,-68 107,-92 30,-25 57,-47 60,-50 20,-20 133,-98 207,-141 48,-29 127,-79 175,-111 47,-32 91,-58 98,-58 46,0 182,-123.00003 214,-193.00003 33,-75 26,-103 -16,-59 -99,105 -191,192 -204,192 -8,0 -14,4 -14,9 0,5 -24,12 -52,16 -58,8 -231,78.00003 -318,130.00003 -30,18 -76,44 -101,58 -114,64 -258,253 -244,319 9,39 28,35 88,-20 z"
       style="fill:#12b9fd;fill-opacity:1" />
    <path
       id="pLakBDWZT"
       d="m 10819.486,10369.297 c -67,-10 -159,-19 -183,-20 -10,0 -29,-11 -42,-25 -22,-22 -25,-32 -25,-106 0,-156 28,-176 260,-181 104,-2 135,5 149,30 7,14 16,194 12,255 0,9 -10,26 -21,37 -22,22 -52,24 -150,10 z"
       style="fill:#12b9fd;fill-opacity:1" />
    <path
       id="pJzDdNa7A"
       d="m 10892.486,9300.2975 c -13,-12 -23,-25 -24,-29 0,-4 -2,-14 -3,-22 -2,-8 -6,-39 -10,-68 -6,-49 -5,-55 22,-82 41,-41 96,-52 268,-56 158,-3 217,4 243,30 20,21 28,145 11,185 -19,47 -47,53 -275,58 -205,5 -211,5 -232,-16 z"
       style="fill:#12b9fd;fill-opacity:1" />
    <path
       id="p6KbtyBAl"
       d="m 10774.486,8978.2975 c -117,-17 -138,-38 -151,-150 -22,-175 1,-196 218,-198 143,-2 157,17 132,178 -28,181 -41,193 -199,170 z"
       style="fill:#12b9fd;fill-opacity:1" />
    <path
       id="p1CIfxOlnI"
       d="m 9679.4862,8060.2975 c -30,-4 -63,-11 -72,-15 -31,-14 -40,-73 -36,-244 3,-152 4,-163 26,-184 20,-20 33,-23 105,-23 104.9998,0 284.9998,12 360.9998,25 104,17 115,43 97,243 -12,149 -25,177 -82,189 -53,11 -337.9998,17 -398.9998,9 z"
       style="fill:#12b9fd;fill-opacity:1" />
    <path
       id="pD5eXqgQc"
       d="m 10382.486,7889.2975 c -30,-12 -42,-39 -49,-108 -9,-84 3,-150 31,-178 23,-23 29,-24 188,-24 212,0 209,-2 218,136 13,182 9,184 -213,183 -84,0 -163,-4 -175,-9 z"
       style="fill:#12b9fd;fill-opacity:1" />
    <path
       id="p8nyy7Fms"
       d="m 7388.4862,3756.2975 c -75.889,-43.4367 -122.216,-125.2033 -145.328,-207.2966 -18.137,-61.3775 -12.825,-127.4419 9.736,-186.865 20.719,-56.3287 50.847,-113.166 103.524,-145.4671 71.683,-49.6215 166.482,-75.0006 251.23,-47.0158 26.092,8.9673 52.483,30.7011 51.838,60.6445 -21.709,13.4668 -59.537,15.3485 -65.672,50.3438 -7.097,24.919 -9.408,68.7917 22.491,76.7705 32.362,7.1957 48.041,-26.3147 54.181,-52.1143 4.821,-18.4195 17.297,-59.9218 37.595,-27.7405 48.188,50.5058 53.596,125.461 49.405,191.7405 -8.9,124.1904 -85.417,247.3858 -203.496,294.1013 -53.08,20.8676 -114.8,20.3192 -165.504,-7.1013 z"
       style="fill:#00000d;fill-opacity:1" />
    <path
       id="pdfUzElwB"
       d="m 5844.4862,3684.2975 c -73.7946,-27.8142 -121.8213,-98.4792 -149.2031,-169.4531 -19.2677,-51.1429 -29.7418,-107.0606 -18.7035,-161.3207 12.3765,-70.07 37.3311,-143.9705 96.4066,-188.4606 47.3403,-36.7403 114.6916,-59.752 172.378,-34.306 21.2826,9.0026 53.688,31.4444 34.6572,57.4759 -14.8353,17.7918 -34.9104,33.5103 -38.6403,57.9977 -9.7259,26.0557 19.1254,63.0259 45.6508,43.5565 22.5568,-12.2229 19.3319,-47.8311 43.4902,-56.0871 23.4683,10.3565 33.3003,38.0686 45.2803,59.362 28.6943,70.5711 24.3381,151.4497 1.1182,222.9266 -24.2641,64.1273 -61.5292,129.4508 -124.2728,162.2607 -33.2983,17.0845 -73.1136,18.8121 -108.1616,6.0481 z"
       style="fill:#000000;fill-opacity:1" />
    <path
       id="pQi0CF87Z"
       d="m 4620.4862,8619.2975 c -1,-19 -3,-22 -10,-11 -12,19 -25,-45 -19,-89 2,-16 1,-27 -3,-25 -4,3 -7,-5 -7,-18 0,-12 -3,-82 -7,-154 -7,-135 -3,-182 15,-153 8,13 11,13 24,0 16,-16 11,-64 -5,-54 -5,3 -9,-5 -9,-18 -1,-43 -37,-132 -61,-150 -18,-14 -48,-19 -119,-23 -52,-2 -151,-7 -220,-10 -124,-6 -284,-37 -372,-72 -90,-35 -164,-97 -80,-67 20,7 51,13 67,14 17,0 75,11 130,25 145,36 260,50 305,36 54,-16 63,-44 45,-132 -16,-75 -19,-171 -6,-204 7,-15 11,-6 20,40 28,138 49,191 101,248 75,82 99,85 293,43 152,-34 301,-78 462,-136 44,-16 125,-44 180,-61 106,-34 125,-44 125,-64 0,-8 -39,-44 -87,-81 -192,-149 -436,-411 -527,-566 -27,-45 -63,-98 -80,-117 -30,-33 -31,-33 -6,-25 46,15 74,7 106,-30 32,-37 32,-37 39,56 11,140 31,169 246,365 155,141 220,189 424,315 329,202 675,373 1000,494 66,25 156,60 200,79 86,36 321,106 421,125 99,19 218,9 290,-23 92,-42 211,-173 277,-304 14,-26 35,-57 47,-68 30,-27 63,-95 94,-191 48,-152 61,-234 60,-380 -1,-70 -5,-86 -29,-125 -120,-191 -369,-396 -651,-535 -42,-21 -72,-40 -66,-42 16,-5 232,96 315,147 36,22 89,52 117,66 29,15 70,39 92,55 82,59 162,46 240,-38 147,-161 158,-177 158,-223 0,-21 -4,-41 -10,-44 -5,-3 -15,-16 -22,-28 -10,-20 -10,-21 5,-9 25,21 77,107 77,128 0,11 -32,49 -75,89 -72,67 -75,72 -75,115 0,36 9,59 45,115 73,112 122,225 97,225 -5,0 -26,-38 -47,-84 -47,-106 -92,-156 -139,-156 -18,0 -39,7 -47,16 -14,17 -14,19 46,194 34,96 37,115 37,220 1,99 -3,132 -31,233 -17,65 -40,135 -50,155 -10,20 -24,55 -31,77 -7,22 -28,73 -47,112 -39,81 -39,116 1,134 25,12 36,9 174,-39 95,-34 120,-54 159,-128 15,-30 32,-54 36,-54 4,0 3,9 -3,19 -5,11 -10,38 -10,60 0,53 22,66 97,56 83,-10 270,-80 416,-156 69,-35 65,-26 -23,67 -134,141 -229,211 -385,285 -110,52 -126,62 -131,87 -9,44 -38,56 -139,58 -89,2 -165,22 -165,44 0,6 -10,10 -22,10 -17,0 -19,3 -10,9 10,6 7,10 -12,13 -15,3 -29,1 -32,-3 -3,-5 -10,-9 -15,-9 -6,0 -8,4 -5,8 3,5 -14,9 -36,10 -32,2 -50,9 -73,32 -17,17 -36,30 -42,30 -5,0 -22,9 -36,21 -15,11 -34,22 -44,24 -31,6 -117,37 -148,53 -16,8 -43,19 -60,23 -16,4 -70,22 -120,39 -89,31 -92,32 -240,27 -146,-4 -154,-6 -285,-50 -173,-58 -267,-97 -410,-170 -128,-65 -287,-154 -310,-173 -35,-29 -213,-119 -315,-159 -60,-24 -132,-56 -158,-70 -48,-27 -48,-27 -150,-15 -56,6 -124,20 -152,30 -27,10 -84,21 -125,24 -48,4 -105,18 -155,37 -44,17 -114,42 -155,56 -132,43 -160,88 -164,261 -2,64 -6,124 -10,133 -4,8 -2,27 3,41 6,16 6,38 1,55 -8,27 -8,27 -9,3 z"
       style="fill:#1e8dbb;fill-opacity:1" />
    <path
       id="p3FgVbcik"
       d="m 6416.4862,4619.2975 c -153,-32 -306,-120 -434,-247 -123,-123 -151,-186 -92,-207 44,-15 77,1 160,79 185,173 325,235 534,235 181,0 348,-62 528,-195 48,-36 97,-65 108,-65 31,0 88,30 100,52 10,18 3,28 -45,74 -260,245 -552,339 -859,274 z"
       style="fill:#000000;fill-opacity:1" />
  </g>
  <text
     xml:space="preserve"
     transform="matrix(10,0,0,10,435.47767,-2.4538345e-6)"
     id="text14084"
     style="font-style:normal;font-weight:normal;font-size:40px;line-height:1.25;font-family:sans-serif;white-space:pre;shape-inside:url(#rect14086);fill:#000000;fill-opacity:1;stroke:none" />
  <text
     xml:space="preserve"
     style="font-style:normal;font-variant:normal;font-weight:600;font-stretch:normal;font-size:2560px;line-height:1.25;font-family:'Kohinoor Devanagari';-inkscape-font-specification:'Kohinoor Devanagari, Semi-Bold';font-variant-ligatures:normal;font-variant-caps:normal;font-variant-numeric:normal;font-variant-east-asian:normal;writing-mode:lr-tb;direction:rtl;text-orientation:sideways;fill:#12b9fd;fill-opacity:1;stroke:none;stroke-width:16.6"
     x="11828.906"
     y="12627.048"
     id="text15082-6"><tspan
       id="tspan41208-5"
       style="font-style:normal;font-variant:normal;font-weight:600;font-stretch:normal;font-size:2560px;font-family:'Kohinoor Devanagari';-inkscape-font-specification:'Kohinoor Devanagari, Semi-Bold';font-variant-ligatures:normal;font-variant-caps:normal;font-variant-numeric:normal;font-variant-east-asian:normal;writing-mode:lr-tb;direction:rtl;text-orientation:sideways;fill:#12b9fd;fill-opacity:1;stroke-width:16.6"
       x="11828.906"
       y="12627.048">powered</tspan></text>
  <text
     xml:space="preserve"
     style="font-style:normal;font-variant:normal;font-weight:600;font-stretch:normal;font-size:2560px;line-height:1.25;font-family:'Kohinoor Devanagari';-inkscape-font-specification:'Kohinoor Devanagari, Semi-Bold';font-variant-ligatures:normal;font-variant-caps:normal;font-variant-numeric:normal;font-variant-east-asian:normal;writing-mode:lr-tb;direction:rtl;text-orientation:sideways;fill:#12b9fd;fill-opacity:1;stroke:none;stroke-width:16.6"
     x="10439.508"
     y="-1669.7592"
     id="text15082-6-5"
     transform="rotate(90)"><tspan
       id="tspan41208-5-4"
       style="font-style:normal;font-variant:normal;font-weight:600;font-stretch:normal;font-size:2560px;font-family:'Kohinoor Devanagari';-inkscape-font-specification:'Kohinoor Devanagari, Semi-Bold';font-variant-ligatures:normal;font-variant-caps:normal;font-variant-numeric:normal;font-variant-east-asian:normal;writing-mode:lr-tb;direction:rtl;text-orientation:sideways;fill:#12b9fd;fill-opacity:1;stroke-width:16.6"
       x="10439.508"
       y="-1669.7592">enDjinn</tspan></text>
  <text
     xml:space="preserve"
     transform="matrix(10,0,0,10,673.38657,-4.5383452e-7)"
     id="text138373"
     style="font-size:40px;line-height:1.25;font-family:sans-serif;text-orientation:sideways;white-space:pre;shape-inside:url(#rect138375)" />
</svg>
