<?xml version="1.0" encoding="UTF-8" standalone="no"?>
<svg
   class="img-fluid"
   id="outputsvg"
   width="960"
   height="1440"
   viewBox="-860 -500 9600 14400"
   version="1.1"
   sodipodi:docname="enDjinn.svg"
   inkscape:version="1.4.2 (ebf0e940d0, 2025-05-08)"
   inkscape:export-filename="enDjinn.png"
   inkscape:export-xdpi="60.880001"
   inkscape:export-ydpi="60.880001"
   xmlns:inkscape="http://www.inkscape.org/namespaces/inkscape"
   xmlns:sodipodi="http://sodipodi.sourceforge.net/DTD/sodipodi-0.dtd"
   xmlns="http://www.w3.org/2000/svg"
   xmlns:svg="http://www.w3.org/2000/svg">
  <sodipodi:namedview
     id="namedview1"
     pagecolor="#ffffff"
     bordercolor="#000000"
     borderopacity="0.25"
     inkscape:showpageshadow="2"
     inkscape:pageopacity="0.0"
     inkscape:pagecheckerboard="false"
     inkscape:deskcolor="#d1d1d1"
     inkscape:zoom="0.88106061"
     inkscape:cx="603.25021"
     inkscape:cy="834.78934"
     inkscape:window-width="2494"
     inkscape:window-height="1371"
     inkscape:window-x="0"
     inkscape:window-y="0"
     inkscape:window-maximized="1"
     inkscape:current-layer="outputsvg"
     inkscape:export-bgcolor="#ffffff00" />
  <defs
     id="defs2731" />
  <g
     id="g1424"
     transform="translate(-3997.5043,-100)"
     inkscape:label="eyes">
    <rect
       style="fill:#ffffff;fill-opacity:1;stroke-width:10"
       id="rect1252"
       width="927.65967"
       height="1099.2971"
       x="6035.918"
       y="2811.5854" />
    <rect
       style="fill:#ffffff;fill-opacity:1;stroke-width:11.1003"
       id="rect1252-9"
       width="1078.8641"
       height="1164.6829"
       x="7594.9585"
       y="2797.2822" />
  </g>
  <g
     id="g1"
     transform="translate(-3997.5043,-100)"
     inkscape:label="highlights">
    <rect
       style="fill:#a6c4ff;fill-opacity:1;stroke:#c6e5a2;stroke-width:10;stroke-opacity:0.742009"
       id="rect10067"
       width="1090"
       height="1190"
       x="8382.873"
       y="4929.2974" />
    <rect
       style="fill:#a6c4ff;fill-opacity:1;stroke:#c6e5a2;stroke-width:10;stroke-opacity:0.742009"
       id="rect9743"
       width="2590"
       height="1390"
       x="5522.8726"
       y="5769.2974" />
    <path
       style="fill:#a6c4ff;fill-opacity:1;stroke:none;stroke-width:10px;stroke-linecap:butt;stroke-linejoin:miter;stroke-opacity:1"
       d="m 4512.8728,6199.2975 330,110 -528,645 -132,195 -70,-360 200,-450 z"
       id="path10965" />
    <path
       style="fill:#a6c4ff;fill-opacity:1;stroke:none;stroke-width:10px;stroke-linecap:butt;stroke-linejoin:miter;stroke-opacity:1"
       d="m 6032.8728,2669.2975 90,-450 460,-440 310,-130 180,-80 50,-240 560,-380 310,-140 180,-200 120,300 -1830,1410 -330,460 z"
       id="path11172" />
  </g>
  <path
     id="pZOtjTkXo"
     d="m 3805.3685,10913.297 c -19,-2 -84,-9 -144,-14 -305,-30 -649,-116 -896,-224 -544,-239 -971,-626 -1233,-1115.9995 -159,-298 -280,-690 -328,-1065 -18,-133 -20,-196 -17,-377 3,-144 1,-221 -6,-228 -5,-5 -54,-10 -110,-10 -495.99999,-1 -837.99999,-146 -971.999993,-412 -146.999998,-292 -129.999998,-688 45.000003,-1043 122,-246 192,-330 388,-463 33,-23 64,-49 68,-59 4,-10 23,-63 42,-117 77,-220 171,-351 365.99999,-509 119,-96 253,-183 397,-256 155,-79 217,-102 408,-154 142,-38 171,-50 232,-92 38,-26 71,-54 74,-62 7,-17 1,-30 -69,-144 -159,-258 -264,-557 -310,-884 -17,-118 -20,-442 -5,-565 44,-361 155,-674 337,-950 136,-206 331,-412 500,-528 118,-80 276,-162 314,-162 49,0 64,-15 118,-114 137,-254 259,-358 635,-541.00003 183,-89 201,-100 269,-167 97,-96 121,-148 122,-253 0,-69 -4,-86 -27,-127 -34,-56 -106,-122 -173,-155 -88,-44 -107,-76 -63,-107 49,-34.000003 244,-9.0000009 400,52 198,76 389,259 477,455 51,113 65,188 65,347 0,184.00003 -15,247.00003 -96,409.00003 -71,140 -75,124 63,221 110,77 266,242 358,378 191,284 294,577 321,917 14,171 17,185 34,185 8,0 56,-36 107,-81 219,-188 345.0002,-240 396.0002,-163 53,82 26,353 -62,621 -49.0002,147 -140.0002,331 -215.0002,433 -130,177 -327,340 -410,340 -35,0 -51,20 -88,108 -17,40 -58,119 -91,176 -34,56 -61,110 -61,119 0,30 197,120 355,162 343,92 638.0002,253 864.0002,470 173,167 285,350 337,550 23,88 27,121 27,270 1,198 -13,289 -73,479 -103,320 -278,631 -494,879 -97,110 -181.0002,180 -284.0002,235 -66,35 -103,65 -209,173 -139,143 -274,251 -395,317 -74,40 -89,54 -70,66 7,4 1104.0002,16 1891.0002,20 147,1 175,3 184,17 16,25 -11,244 -33,272 -18,21 -25,22 -197,22 -98,0 -281,-1 -408,-3 -126,-2 -312,-3 -413,-3 -182,1 -182,1 -194,27 -16,34 4,70 52,98 34,20 49,21 491,21 372,0 459,3 472,14 23,18 24,162 3,180 -8,7 -54,14 -103,17 -449,23 -481,25 -497,43 -7,9 -17,35 -21,58 -5,34 -3,45 15,63 20,20 23,21 408,13 596,-11 654,-10 676,13 28,27 14,304 -16,342 -8,9 -61,11 -232,7 -306,-6 -678,6 -700,24 -21,18 -22,118 -1,148 15,21 18,21 400,20 433,0 424,-2 411,67 -4,19 -11,38 -15,40 -5,3 -64,8 -132,11 -216,9 -212,8 -252,87 -22,43 -22,43 -221,44 -195,1 -200,1 -218,23 -26,33 -22,95.9995 9,130.9995 3,3 120,7 260,10 217,4 257,7 266,21 16,25 -11,157 -34,170 -11,6 -142,12 -319,14 -183,3 -308,8 -320,15 -31,16 -43,48 -36,95 12,79 13,80 199,83 158,3 167,4 191,27 33,30 33,58 1,122 -35,70 -117,144 -190,174 -59,23 -68,23 -452,27 -398.0002,4 -433.0002,1 -433.0002,-33 0,-8 34,-52 76,-97 345.0002,-377 472.0002,-750.9995 408.0002,-1200.9995 -37,-256 -151,-488 -328.0002,-662 -189,-187 -432,-310 -691,-350 -163,-26 -405,-17 -540,19 -116,32 -238,86 -337,152 -137,91 -315,281 -376,401 -12,23 -34,81 -48,130 -24,76 -27,106 -28,228 -1,165 12,221 81,365 88,182 230,289.9995 430,325.9995 178,32 312,-6 428,-119.9995 142,-141 177,-350 76,-456 -30,-32 -45,-40 -74,-40 -42,0 -51,9 -37,44 27,71 -106,114 -205,66 -67,-32 -87,-69 -83,-150 5,-80 27,-127 87,-187 102,-103 259,-139 402,-93 187,60 316,208 355,407 46,232 -66,526.9995 -278,728.9995 -165,158 -302,229 -591,306 -129.071,32.117 -207.737,44.49 -440.232,45.374 -432.9971,1.646 -538.143,-32.749 -774.268,-126.124 -327,-146 -509.5,-284.25 -725.5,-526.2495 -95,-107 -251,-333 -311,-453 -47,-94 -128,-296 -156,-390 -36,-123 -56,-161 -92,-177 -21,-9 -37,-10 -43,-4 -30,30 25,319 96,501 61,153 93,219 165,339 91,151 148,225.9995 263,348.9995 223,239 480,405 791,511 214,72 563,137 785,146 217,9 449,-34 703,-129 336,-126 626,-446 717,-793.9995 95,-360 -29,-724 -288,-848 -222,-107 -476,-81 -658,67 -114,93 -164,203 -157,346 5,99 27,156 84,215 52,54 89,69 179,74 87,5 128,-7 197,-54 62,-44 77,-6 33,83 -32,63 -99,126 -168,159 -62,28 -173,33 -250,9 -162,-49 -284,-185 -343,-381 -32,-105 -19,-274 30,-395 94,-232 302,-409 577,-490 106,-31 369,-38 489,-14 549,111 908.0002,595 851,1147 -7,67 -23,157 -36,202.9995 -152,522 -655,895 -1336,990 -108,15 -538,28 -619,19 z M 317.36851,6854.2975 c 71,-131 81,-157 88,-245 9,-120 30,-159 158,-296 68,-73 107,-123 102,-128 -5,-5 -39,-9 -76,-8 -50,0 -79,7 -121,28 -48,23 -62,38 -110,110 -101,155 -173,346 -173,458 0,69 47,160 79,154 8,-2 32,-35 53,-73 z m 3276.99999,-371 c 17,-4 31,-10 31,-15 0,-17 -162,-90 -298,-135 -433,-143 -894,-215 -1077,-169 -131,33 -312,143 -399,243 -29,33 -31,56 -3,27 9,-8 58,-31 109,-50 124,-47 188,-76 216,-96 56,-42 208,-30 562,46 130,28 346,77 375,85 69,20 347,66 411,69 23,0 56,-2 73,-5 z m 1286,-728 c 19,-8 35,-19 35,-25 0,-5 34,-51 75,-103 99,-124 242,-257 296,-277 23,-9 44,-21 46,-27 7,-21 -56,-55 -122,-66 -75,-13 -66,-17 -212,101 -158,127 -351,332 -341,363 3,8 42,20 94,29 49,9 90,17 92,18 1,1 18,-6 37,-13 z m -575,-2012 c 71,-31 145,-106 180,-181 29,-62 60,-217 60,-301 -1,-197 -86,-360 -233,-446 -40,-24 -63,-29 -135,-33 -85,-5 -89,-4 -168,35 -44,22 -97,54 -117,72 -81,71 -165,206 -213,346 -26,72 -24,234 3,294 36,82 119,150 245,199 145,58 271,63 378,15 z m -1643,-67 c 111,-68 165,-170 194,-371 13,-90 13,-90 -20,-185 -64,-184 -129,-274 -235,-328 -69,-35 -159,-42 -223,-18 -96,37 -182,144 -208,260 -7,33 -19,86 -26,117 -16,71 -1,213 30,282 36,83 110,185 156,219 74,53 121,68 201,64 61,-3 80,-9 131,-40 z m -489,-1256 c 128,-172 299,-375 353,-420 35,-29 125,-113 200,-186 121,-116 136,-135 132,-158 -6,-32 -20,-34 -90,-8 -131,48 -313,212 -490,442 -46,60 -122,196 -123,219 0,8 -9,33 -20,55 -41,84 -13,125 38,56 z m 1115,-1059 c 29,-26 77,-68 107,-92 30,-25 57,-47 60,-50 20,-20 133,-98 207,-141 48,-29 127,-79 175,-111 47,-32 91,-58 98,-58 46,0 182,-123.00003 214,-193.00003 33,-75 26,-103 -16,-59 -99,105 -191,192 -204,192 -8,0 -14,4 -14,9 0,5 -24,12 -52,16 -58,8 -231,78.00003 -318,130.00003 -30,18 -76,44 -101,58 -114,64 -258,253 -244,319 9,39 28,35 88,-20 z"
     style="fill:#4365aa;fill-opacity:1"
     inkscape:label="outline" />
  <path
     id="p1EO17Nkt8"
     d="m 3431.6267,10832.598 c -351,-56 -627,-152 -918,-317 -242,-137 -425,-284 -633,-509 -330,-357.9997 -546,-846.9997 -638,-1441.9997 -30,-195 -40,-465 -21,-583 20,-123 -9,-141 -236.00003,-141 -177.99996,-1 -285.99996,-17 -439.99996,-67 -136,-43 -214,-88 -310.9999,-178 -85,-79 -136.000003,-171 -175.000003,-316 -20,-75 -23,-107 -22,-270 0,-175 2,-191 32,-303 46.000003,-172 117.000003,-325 228.999903,-495 38,-56 189,-189 252,-222 54,-27 77,-60 102,-144 81,-275 237,-466 537.99999,-660 206,-133 393,-219 603,-277 172,-47 186,-53 281,-117 79,-54 90,-78 60,-132 -11,-19 -52,-89 -90,-155 -197,-340 -293,-704 -293,-1111 0,-318 47,-579 151,-837 99,-247 210,-425 386,-623 118,-133 225,-219.9995 396,-321.9995 132,-79 164,-94 211,-99 32,-3 61,-12 69,-22 8,-9 36,-56 62,-106 68,-129 98,-170 186,-256 103,-102 166,-142 417,-265.00001 198,-98 219,-111 291,-180 105,-100 136,-164 136,-284 0,-76 -3,-91 -30,-139 -33,-60 -99,-122 -165,-156 -25,-13 -54,-30 -65,-39 -61,-48 100,-44 276,6 285,82 512,310 586,588 27,103 25,332.00001 -5,433.00001 -22,77 -77,197 -113,249 -22,30 -24,67 -6,89 6,9 37,33 67,54 178,126 301,253 422,434.9995 177.9999,268 274.9999,559 298.9999,895 6,88 15,170 20,182 16,42 57,30 134,-40 207,-186 346,-256 389,-195 32,45 16,273 -31,453 -81,313 -220,558 -423,748 -95,88 -156,126 -220,134 -49.9999,7 -70.9999,30 -110.9999,128 -18,44 -61,127 -96,185 -66,111 -74,138 -45,162 47,40 235,120 361.9999,154 220,58 440,152 560,241 35,26 35,26 5,18 -79,-19 -155,-26 -210,-20 -128,14 -351,106 -433,180 -26,23 -68.9999,54 -96.9999,68 -50,26 -64,36 -206,152 -102,82 -236,217 -297,299 -77,103 -71,119 47,130 163,16 306,56 473,134 102.9999,48 192.9999,105 307.9999,196 118,94 138,103 198,87 45,-12 94,-47 113,-83 13,-24 -1,-48 -77,-129 -86,-92 -160,-208 -187,-293 -31,-100 -31,-290 1,-356 49,-105 191,-200 297,-200 98,0 273.0001,91 398.0001,206 32,30 63,54 69,54 41,0 -77,-180 -168,-257 -27,-23 -46,-44 -43,-48 10,-9 142,107 199,176 138,166 219,331 250,509 16,89 14,327 -4,430 -82,496 -478,1144 -806.0001,1320 -70,37 -112,72 -250,206 -182,177 -265.9999,241 -411.9999,315 -72,36 -98,54 -98,68 0,39 20,42 284.9999,46 282,5 264,1 313,73 53,80 179,227 217,254 22,16 48,42 58,57 21,34 74,70 137,95 58.0001,23 102.0001,50 157.0001,98 25,21 48,37 51,34 3,-3 14,8 24,24 12,21 18,50 18,95 0,57 3,68 31,99 16,19 39,38 50,41 32,11 60,80 69,172 4,46 10,86 13,89 3,3 -1,27 -9,54 -18,61 -5,166 26,210 41,57 39,131 -4,172 -47,45 -65,94 -65,181.9997 1,44 -4,94 -11,110 -6,16 -37,55 -70,87 -65,64 -76,95 -67,177 6,52 0,66 -40,110 -16,16 -66,72 -112,125 -112.0001,129 -131.0001,137 -301.0001,137 -80,0 -130,-4 -130,-10 0,-6 42,-58 93,-118 208,-241 324.0001,-475 363.0001,-733.9997 47,-317 1,-602 -142.0001,-866 -172,-315 -526,-554 -903.9999,-608 -143,-21 -396,-18 -500,5 -241,54 -411,150 -591,334 -211,216 -286,398 -277,670 4,99 11,149 28,202 31,99 99,233 137,274 24,26 30,38 22,47 -7,8 -17,10 -27,5 -72,-36 -135,-47 -151,-27 -8,9 -29,16 -50,16 -44,0 -84,-34 -163,-135 -66,-84 -77,-104 -117,-219 -41,-116 -48,-147 -66,-291 -9,-65 -18,-121 -21,-124 -10,-10 -22,21 -28,74 -19,167 74,532 172,673 10,15 22,39 26,53.9997 6,25 3,28 -26,36 -37,10 -60,-3 -84,-49.9997 -9,-17 -23,-28 -36,-28 -13,0 -52,-32 -105,-86 -129,-132 -192,-273 -250,-561 -17,-88 -25,-156 -24,-216 2,-59 -1,-87 -8,-82 -18,11 -30,77 -36,205 -7,132 9,242 53,370 19,56 19,124 -1,137 -6,3 -7,1 -3,-6 10,-15 -23,-27 -43,-15 -9,6 -23,8 -31,7 -27,-7 -76,-86 -125,-203 -26,-63 -54,-129 -61,-145 -40,-95 -75,-288 -79,-445 -4,-142 -6,-160 -14,-160 -35,0 -48,458 -17,575 9,32 14,66 11,75 -3,9 2,38 10,66 17,58 19,74 5,74 -5,0 -10,-9 -10,-20 0,-32 -34,-43 -63,-20 -14,11 -34,20 -44,20 -21,0 -63,-39 -63,-58 0,-7 -19,-26 -42,-43 -24,-17 -46,-39 -50,-50 -4,-11 -32,-31 -63,-44 -30,-14 -55,-29 -55,-35 0,-5 -15,-10 -32,-11 -30,0 -40,-10 -108,-102 -113,-152 -108,-139 -151,-397 -6,-36 -14,-197 -18,-359 -5,-257 -8,-295 -22,-304 -22,-14 -152,9 -180,32 -16,13 -23,35 -31,101 -14,117 -14,540 0,620 6,36 19,117 28,180 9,63 27,146 40,183 28,80 30,94 9,77 -8,-7 -15,-21 -15,-32 0,-11 -11,-41 -24,-67 -13,-25 -34,-75 -46,-111 -12,-36 -28,-81 -35,-100 -8,-19 -14,-51 -15,-70 0,-19 -12,-53 -25,-75 -16,-26 -25,-55 -25,-82 0,-55 -18,-103 -30,-83 -13,21 -2,149 20,250 11,47 26,118 35,158 23,111 101,342 133,392 15,25 56,99 91,165 92,174 180,292 288,385.9997 10,9 32,33 48,54 17,20 63,71 103,113 39,42 72,80 72,84 0,4 33,32 73,62 39,31 90,69 112,86 67,51 173,117 205,128 16,6 51,27 77,47 25,19 58,38 72,42 25,5 255,104 289,123 18,11 212,72 277,89 106,26 123,32 145,51 23,20 23,20 -1,19 -13,-1 -35,-4 -49,-6 z m 1706,-3383.9997 c 23,-16 51.9999,-41 63.9999,-56 20,-26 20,-28 4,-40 -10,-7 -39.9999,-13 -65.9999,-13 -44,0 -50,-3 -59,-27 -6,-15 -13,-66 -16,-113 -3,-47 -16,-128 -29,-180 -26,-103 -31,-183 -11,-200 6,-6 26,-19 44,-28 17,-9 60,-32 95,-51 33.9999,-19 68.9999,-42 75.9999,-52 7,-11 19,-19 26,-19 7,0 22,-11 34,-25 24,-28 57,-32 86,-10 37,28 49,19 42,-27 -14,-85 -116,-239 -244.9999,-369 -134,-135 -255,-211 -433,-270 -82,-28 -106,-31 -208,-32 -126,0 -160,9 -186,48 -16,24 -16,28 -1,42 8,9 54,28 101,43 289,93 544,357 474,490 -8,14 -34,36 -60,50 -62,34 -88,59 -88,84 0,12 16,48 36,80 105,175 187,412 204,589 5,60 12,113 16,118 9,15 51,2 100,-32 z m -1224,-35 c 38,-27 38,-27 38,-118 0,-102 17,-152 66,-198 35,-32 102,-58 153,-58 48,0 132,42 170,86 52,58 70,179 37,243 -21,39 -20,41 9,41 18,0 25,-5 25,-20 0,-10 8,-24 18,-29 10,-5 24,-21 31,-34 7,-14 26,-27 41,-31 24,-4 31,-13 46,-63 9,-32 19,-83 22,-115 4,-48 0,-64 -24,-109 -54,-99 -236,-273 -389,-372 -244,-157 -587,-290 -1052,-406 -558,-140 -775,-150 -1009,-46 -155,68 -366,251 -422,364 -22,46 -27,69 -27,132 0,66 4,81 28,118 33,50 80,81 125,81 18,0 63,15 100,34 37,19 90,40 117,49 52,15 217,93 257,121 12,9 34,16 48,16 14,0 61,16 105,35 44,19 87,35 96,35 9,0 36,10 60,23 24,13 78,34 119,46 41,13 100,36 132,51 77,39 204,83 236,82 15,0 51,6 81,14 30,7 64,11 77,8 12,-3 46,-1 76,5 29,6 145,13 258,16 113,3 219,9 235,14 51,16 77,12 117,-15 z m -3112.99999,-44 c 44,0 49,-2 68,-37 12,-21 37,-110 56.99996,-198 43,-188 91.00003,-335 140.00003,-434 20,-39 36,-79 36,-89 0,-10 -11,-33 -25,-52 -49,-66 -24,-167 71,-289 39,-50 43,-76 14,-91 -31,-17 -333.99999,-52 -459.99999,-53 -122,-2 -216,19 -286,62 -75,46 -210.9999,288 -258.9999,460 -72.000003,256 -61.000003,404 35,468 44.9999,31 85.9999,29 139.9999,-7 94,-64 160,-76 228,-41 75,39 106,97 105,203 0,46 4,81 11,87 15,12 48,20 64,15 8,-2 35,-4 61,-4 z m 410.99999,-51 c 92,-9 110,-13 195,-49 22,-9 48,-20 59,-24 23,-8 20,-44 -17,-209 -15,-65 -27,-141 -27,-168 0,-108 -71,-169 -198,-169 -72,0 -113,58 -158,222 -56,206 -36,441 36,412 8,-3 58,-10 110,-15 z m 299,-698 c 10,-10 33,-47 51,-82 71,-140 151,-230 295,-331 94,-66 123,-94 109,-108 -17,-17 -157,-23 -245,-11 -179,25 -314,88 -431,200 -88,83 -137,165 -119,199 8,16 287,150 314,152 4,0 15,-8 26,-19 z m 2992,-76 c 41,-30 100,-72 131,-92 71,-47 77,-63 44,-112 -89,-128 -319,-232 -479,-217 -107,10 -295,94 -356,160 -31,32 -21,46 57,76 52,21 318,151 436,214 27,14 59,26 71,26 13,0 56,-25 96,-55 z m -808,-330 c 20,-8 80,-40 134,-72 98,-56 232,-119 308,-143 99,-31 142,-59 176,-113 18,-29 50,-81 73,-117 96,-155 277,-372 445,-533 51,-49 90,-94 88,-100 -2,-7 -23,-12 -48,-12 -36,1 -58,10 -119,51 -208,139 -620,315 -873,374 -241,55 -667,37 -917,-40 -98,-30 -269,-108 -352,-161 -46,-30 -154,-168 -253,-323 -57,-90 -112,-144 -151,-152 -107,-20 -254,154 -416,493 -119,250 -137,306 -153,473 -10,100 -11,100 180,105 584,16 1113,96 1650,249 136,39 177,42 228,21 z m -2599,-134 c 42,-9 52,-31 38,-78 -27,-89 -124,-154 -242.99999,-161 -107,-6 -137,6 -225,95 -128,128 -125,137 48,141 68,1 130,4 138,6 26,6 213.99999,4 243.99999,-3 z m 363,-178 c 9,-21 30,-90 48,-153 67,-237 138,-393 278,-603 62,-95 117,-178 121,-185 11,-18 -12,-42 -40,-42 -33,0 -294,86 -379,125 -184,84 -369,227 -492.00003,381 -39,49 -87.99996,105 -107.99996,124 -54,50 -95,109 -95,135 0,20 7,24 55,30 30,3 58,4 62,2 5,-2 57.99996,-1 118.99999,4 176,13 264,58 346,176 37,55 63,57 85,6 z m 4556,1 c 57,-30 105,-84 123,-137 9,-29 24,-62 32,-75 25,-38 12,-174 -23,-244 -34,-69 -110,-157 -173,-200 -42.0001,-29 -56.0001,-32 -134.0001,-36 -80,-4 -93,-2 -142,22 -77,38 -109,72 -135,141 -21,56 -22,66 -12,150 15,117 59,212 133,281 118,112 236,147 331.0001,98 z M 3853.2427,4838.9188 c 244.433,-120.2459 339.3709,-207.6407 440.3776,-281.5964 117.071,-110.7096 201.4855,-247.9577 310.7247,-394.0157 75.7016,-141.5185 127.8721,-307.8252 179.6565,-493.6443 27.0339,-131.3199 56.8449,-762.0564 66.8431,-858.0513 7.1106,-154.7899 -5.9806,-410.3628 -27.8181,-537.8254 -37.0249,-170.5125 -94.3998,-267.1874 -148.3998,-343.1874 -43,-60 -275,-281.9995 -318,-302.9995 -22,-12 -53,-31 -70,-43 -65,-48 -341,-105 -412,-86 -21,6 -53,11 -70,11 -29,0 -33,-3 -33,-27 0,-15 12,-59 27,-97 28,-71 97,-156 221,-270 131,-122 239,-316.00001 271,-486.00001 15,-80 1,-212 -31,-297 -27,-70 -116,-169 -182,-202 -47,-23 -84,-22 -70,1 4,7 25,41 46,75 84,133 68,313 -40,460 -46,61 -147,128 -294,194 -225,101.00001 -360,184.00001 -477,293.00001 -57,54 -149,181 -188,261 -20,42 -46,83 -57,90 -12,7 -64,25 -116,39 -162,46 -275,122 -476,320.9995 -250,248 -449,610 -525,956 -77,354 -65,812 33,1189 44,168 241.362,452.8745 307.362,529.8745 197.2574,202.7183 537.6179,347.1185 819.1627,369.5456 234.2068,18.6563 566.709,32.7486 813.0913,-70.0996 z"
     style="fill:#2b4c90;fill-opacity:0.6"
     sodipodi:nodetypes="cccccccccccccccccccscccccccccscccccccccccccccccccccccccccccccsccccscsccccccccsccccccscscccscccccccccssccccccccccscscccscccccscccccccccccccscscsscsscscsccscccccsccscscccsccccccccscccccccccccccscscccccsscccccsccccscccccscsccssscccccccccscssccssssccccccsccscccsccccccccccccsccccsscccsccsccccscccccccscccccccccccccccccccccccccccccccscccsccccccccccccccccccccccccccsscccccccccccccccccsc"
     inkscape:label="light shade" />
  <g
     id="g6369"
     transform="matrix(0.5376,0,0,0.5376,9366.8991,9258.8667)"
     style="fill:#4365aa;fill-opacity:1"
     inkscape:label="letters">
    <path
       id="path2677"
       d="m -9754.3196,7963.3697 c -13,-6 -28,-15 -32,-22 -4,-7 -8,-94 -8,-193 0,-230 -6,-219 145,-233 113,-10 159,-22 236,-61 103,-53 159,-122 206,-256 28,-79 28,-79 33,-1221 3,-628 9,-1145 13,-1150 5,-4 119,-9 254,-11 211,-3 248.0004,-1 269.0004,13 25,16 25,16 22,1163 -3,1147 -3,1147 -30,1247 -33,120 -120.0004,300 -182.0004,374 -158,191 -410,319 -691,351 -111,12 -202,12 -235,-1 z"
       style="fill:#4365aa;fill-opacity:1" />
    <path
       id="path2679"
       d="m -16344.32,6959.3697 c -58,-7 -135,-20 -171,-28 -323,-76 -590,-295 -705,-577 -56,-139 -75,-241 -81,-435 -10,-362 56,-573 248,-793 140,-161 305,-265 507,-320 90,-24 113,-26 312,-26 195,-1 223,1 305,23 290,75 527,294 618,568 32,98 57,289 57,440 0,110 -10,160 -33,175 -7,4 -317,8 -690,8 -680,0 -708,1 -729,34 -13,19 -8,121 8,177 51,172 180,293 369,345 92,26 350,31 467,9 102,-19 246,-62 333,-100 73,-33 90,-24 104,50 34,175 44,250 36,275 -13,41 -194,112 -379,150 -193,39 -389,48 -576,25 z m 509,-1309 c 30,-27 28,-115 -4,-212 -31,-92 -59,-136 -119,-192 -208,-192 -577,-117 -702,142 -44,90 -71,209 -55,242 6,14 21,29 33,34 13,5 196,8 424,7 380,-2 403,-3 423,-21 z"
       style="fill:#4365aa;fill-opacity:1" />
    <path
       id="path2681"
       d="m -14862.32,6892.3697 c -9,-9 -12,-251 -12,-1029 0,-912 2,-1019 16,-1033 13,-14 51,-16 265,-16 293,0 289,-2 289,98 0,71 17,106 52,110 20,2 41,-10 94,-58 137,-124 328,-190 554,-190 323,1 537,127 657,388 72,154 73,169 73,984 0,647 -2,728 -16,742 -13,14 -52,16 -267,16 -141,0 -259,-4 -267,-10 -13,-8 -16,-100 -20,-697 -5,-688 -5,-688 -29,-747 -60,-150 -200,-216 -431,-203 -172,10 -290,63 -351,158 -34,54 -34,54 -39,760 -4,578 -7,709 -19,722 -12,15 -44,17 -275,17 -190,0 -265,-3 -274,-12 z"
       style="fill:#4365aa;fill-opacity:1" />
    <path
       id="path2683"
       d="m -12361.32,6893.3697 c -10,-10 -13,-308 -13,-1420 0,-1266 2,-1409 16,-1423 14,-14 80,-16 579,-16 430,0 597,4 706,15 327,34 504,81 724,193 345,175 588.0004,511 661.0004,915 21,115 24,453 5,572 -15,96 -86,317 -129,401 -86,171 -252.0004,367 -407.0004,482 -132,98 -364,198 -547,236 -235,49 -241,49 -928,53 -519,3 -658,2 -667,-8 z m 1316,-474 c 261,-46 426,-132 554,-290 157,-194 239,-529 201,-822 -24,-189 -81,-339 -171,-450 -80,-100 -168,-169 -288,-228 -212,-104 -379,-135 -735,-135 -217,0 -231,1 -250,20 -20,20 -20,33 -20,950 0,917 0,930 20,950 19,19 33,20 313,20 213,0 315,-4 376,-15 z"
       style="fill:#4365aa;fill-opacity:1" />
    <path
       id="path2685"
       d="m -8062.3192,6892.3697 c -9,-9 -12,-251 -12,-1029 0,-912 2,-1019 16,-1033 13,-14 51,-16 255,-16 226,0 240,1 259,20 20,20 20,33 20,1026 0,674 -3,1012 -10,1025 -10,18 -24,19 -263,19 -184,0 -256,-3 -265,-12 z"
       style="fill:#4365aa;fill-opacity:1" />
    <path
       id="path2687"
       d="m -6978.3192,6888.3697 c -14,-14 -16,-121 -16,-1029 0,-908 2,-1015 16,-1029 13,-14 51,-16 255,-16 226,0 240,1 259,20 15,15 20,33 20,73 0,65 17,101 51,105 19,2 41,-11 88,-53 255,-228 771,-248 1022,-40 117,98 203,241 236,395 16,79 18,141 15,824 -2,522 -6,743 -13,753 -9,10 -67,13 -270,13 -245,0 -259,-1 -269,-19 -6,-13 -10,-240 -10,-666 0,-717 -2,-740 -63,-833 -35,-51 -108,-105 -165,-122 -60,-18 -211,-23 -289,-11 -114,18 -180,47 -238,105 -89,89 -85,51 -85,832 0,607 -2,684 -16,698 -13,14 -51,16 -264,16 -213,0 -251,-2 -264,-16 z"
       style="fill:#4365aa;fill-opacity:1" />
    <path
       id="path2689"
       d="m -4542.3192,6892.3697 c -9,-9 -12,-251 -12,-1029 0,-912 2,-1019 16,-1033 13,-14 50,-16 252,-16 170,0 244,4 262,13 23,11 25,20 30,93 8,136 36,145 143,47 170,-157 411,-221 668,-178 184,30 324,109 429,239 60,76 89,139 121,261 23,90 23,90 23,837 0,598 -3,750 -13,762 -12,14 -48,16 -262,16 -245,0 -248,0 -263,-22 -14,-20 -16,-102 -16,-688 0,-738 1,-722 -65,-826 -54,-83 -163,-124 -333,-124 -100,0 -202,19 -259,48 -50,26 -119,101 -146,160 -22,47 -22,54 -25,736 -2,477 -6,694 -14,703 -15,18 -518,19 -536,1 z"
       style="fill:#4365aa;fill-opacity:1" />
    <path
       id="path2691"
       d="m -9011.3196,4480.3697 c -98,-32 -168,-90 -204,-171 -28,-61 -26,-185 5,-251 72,-155 246,-218 431,-157 75,24 158.0004,112 181.0004,188 22,77 15,164 -19,230 -31,62 -99.0004,129 -152.0004,151 -54,22 -188,28 -242,10 z"
       style="fill:#4365aa;fill-opacity:1" />
    <path
       id="path2693"
       d="m -7912.3192,4466.3697 c -72,-26 -141,-87 -177,-157 -26,-51 -30,-69 -30,-139 0,-97 25,-157 92,-223 114,-110 321,-116 451,-14 139,110 150,317 24,449 -67,71 -116,92 -221,98 -68,4 -97,1 -139,-14 z"
       style="fill:#4365aa;fill-opacity:1" />
  </g>
  <g
     id="g7"
     inkscape:label="particles"
     transform="translate(-82.363033)">
    <path
       id="pLakBDWZT"
       d="m 7577.7317,10269.297 c -67,-10 -159,-19 -183,-20 -10,0 -29,-11 -42,-25 -22,-22 -25,-32 -25,-106 0,-156 28,-176 260,-181 104,-2 135,5 149,30 7,14 16,194 12,255 0,9 -10,26 -21,37 -22,22 -52,24 -150,10 z"
       style="fill:#4365aa;fill-opacity:1" />
    <path
       id="pJzDdNa7A"
       d="m 7650.7317,9200.2975 c -13,-12 -23,-25 -24,-29 0,-4 -2,-14 -3,-22 -2,-8 -6,-39 -10,-68 -6,-49 -5,-55 22,-82 41,-41 96,-52 268,-56 158,-3 217,4 243,30 20,21 28,145 11,185 -19,47 -47,53 -275,58 -205,5 -211,5 -232,-16 z"
       style="fill:#4365aa;fill-opacity:1" />
    <path
       id="p6KbtyBAl"
       d="m 7532.7317,8878.2975 c -117,-17 -138,-38 -151,-150 -22,-175 1,-196 218,-198 143,-2 157,17 132,178 -28,181 -41,193 -199,170 z"
       style="fill:#4365aa;fill-opacity:1" />
    <path
       id="p1CIfxOlnI"
       d="m 6437.7317,7960.2975 c -30,-4 -63,-11 -72,-15 -31,-14 -40,-73 -36,-244 3,-152 4,-163 26,-184 20,-20 33,-23 105,-23 105,0 285,12 361,25 104,17 115,43 97,243 -12,149 -25,177 -82,189 -53,11 -338,17 -399,9 z"
       style="fill:#4365aa;fill-opacity:1" />
    <path
       id="pD5eXqgQc"
       d="m 7140.7317,7789.2975 c -30,-12 -42,-39 -49,-108 -9,-84 3,-150 31,-178 23,-23 29,-24 188,-24 212,0 209,-2 218,136 13,182 9,184 -213,183 -84,0 -163,-4 -175,-9 z"
       style="fill:#4365aa;fill-opacity:1" />
  </g>
  <g
     id="g9"
     inkscape:label="pupils"
     transform="translate(-82.363033)">
    <path
       id="p8nyy7Fms"
       d="m 4146.7315,3656.2975 c -75.889,-43.4367 -122.216,-125.2033 -145.328,-207.2966 -18.137,-61.3775 -12.825,-127.4419 9.736,-186.865 20.719,-56.3287 50.847,-113.166 103.524,-145.4671 71.683,-49.6215 166.482,-75.0006 251.23,-47.0158 26.092,8.9673 52.483,30.7011 51.838,60.6445 -21.709,13.4668 -59.537,15.3485 -65.672,50.3438 -7.097,24.919 -9.408,68.7917 22.491,76.7705 32.362,7.1957 48.041,-26.3147 54.181,-52.1143 4.821,-18.4195 17.297,-59.9218 37.595,-27.7405 48.188,50.5058 53.596,125.461 49.405,191.7405 -8.9,124.1904 -85.417,247.3858 -203.496,294.1013 -53.08,20.8676 -114.8,20.3192 -165.504,-7.1013 z"
       style="fill:#00000d;fill-opacity:1" />
    <path
       id="pdfUzElwB"
       d="m 2602.7315,3584.2975 c -73.7946,-27.8142 -121.8213,-98.4792 -149.2031,-169.4531 -19.2677,-51.1429 -29.7418,-107.0606 -18.7035,-161.3207 12.3765,-70.07 37.3311,-143.9705 96.4066,-188.4606 47.3403,-36.7403 114.6916,-59.752 172.378,-34.306 21.2826,9.0026 53.688,31.4444 34.6572,57.4759 -14.8353,17.7918 -34.9104,33.5103 -38.6403,57.9977 -9.7259,26.0557 19.1254,63.0259 45.6508,43.5565 22.5568,-12.2229 19.3319,-47.8311 43.4902,-56.0871 23.4683,10.3565 33.3003,38.0686 45.2803,59.362 28.6943,70.5711 24.3381,151.4497 1.1182,222.9266 -24.2641,64.1273 -61.5292,129.4508 -124.2728,162.2607 -33.2983,17.0845 -73.1136,18.8121 -108.1616,6.0481 z"
       style="fill:#000000;fill-opacity:1" />
  </g>
  <path
     id="p3FgVbcik"
     d="m 3092.3685,4519.2975 c -153,-32 -306,-120 -434,-247 -123,-123 -151,-186 -92,-207 44,-15 77,1 160,79 185,173 325,235 534,235 181,0 348,-62 528,-195 48,-36 97,-65 108,-65 31,0 88,30 100,52 10,18 3,28 -45,74 -260,245 -552,339 -859,274 z"
     style="fill:#000000;fill-opacity:1"
     inkscape:label="mouth" />
  <g
     id="g8"
     inkscape:label="darkest shade"
     transform="translate(-82.363033)"
     style="fill:#1b3c7f;fill-opacity:0.60000002">
    <path
       id="pQi0CF87Z"
       d="m 1378.7315,8519.2975 c -1,-19 -3,-22 -10,-11 -12,19 -25,-45 -19,-89 2,-16 1,-27 -3,-25 -4,3 -7,-5 -7,-18 0,-12 -3,-82 -7,-154 -7,-135 -3,-182 15,-153 8,13 11,13 24,0 16,-16 11,-64 -5,-54 -5,3 -9,-5 -9,-18 -1,-43 -37,-132 -61,-150 -18,-14 -48,-19 -119,-23 -52,-2 -151,-7 -219.99996,-10 -124,-6 -284,-37 -372,-72 -90,-35 -164,-97 -80,-67 20,7 51,13 67,14 17,0 75,11 130,25 145,36 260,50 304.99996,36 54,-16 63,-44 45,-132 -16,-75 -19,-171 -6,-204 7,-15 11,-6 20,40 28,138 49,191 101,248 75,82 99,85 293,43 152,-34 301,-78 462,-136 44,-16 125,-44 180,-61 106,-34 125,-44 125,-64 0,-8 -39,-44 -87,-81 -192,-149 -436,-411 -527,-566 -27,-45 -63,-98 -80,-117 -30,-33 -31,-33 -6,-25 46,15 74,7 106,-30 32,-37 32,-37 39,56 11,140 31,169 246,365 155,141 220,189 424,315 329,202 675,373 1000,494 66,25 156,60 200,79 86,36 321,106 421,125 99,19 218,9 290,-23 92,-42 211,-173 277,-304 14,-26 35,-57 47,-68 30,-27 63,-95 94,-191 48,-152 61,-234 60,-380 -1,-70 -5,-86 -29,-125 -120,-191 -369,-396 -651,-535 -42,-21 -72,-40 -66,-42 16,-5 232,96 315,147 36,22 89,52 117,66 29,15 70,39 92,55 82,59 162,46 240,-38 147,-161 158,-177 158,-223 0,-21 -4,-41 -10,-44 -5,-3 -15,-16 -22,-28 -10,-20 -10,-21 5,-9 25,21 77,107 77,128 0,11 -32,49 -75,89 -72,67 -75,72 -75,115 0,36 9,59 45,115 73,112 122,225 97,225 -5,0 -26,-38 -47,-84 -47,-106 -92,-156 -139,-156 -18,0 -39,7 -47,16 -14,17 -14,19 46,194 34,96 37,115 37,220 1,99 -3,132 -31,233 -17,65 -40,135 -50,155 -10,20 -24,55 -31,77 -7,22 -28,73 -47,112 -39,81 -39,116 1,134 25,12 36,9 174,-39 95,-34 120,-54 159,-128 15,-30 32,-54 36,-54 4,0 3,9 -3,19 -5,11 -10,38 -10,60 0,53 22,66 97,56 83,-10 270,-80 416,-156 69,-35 65,-26 -23,67 -134,141 -229,211 -385,285 -110,52 -126,62 -131,87 -9,44 -38,56 -139,58 -89,2 -165,22 -165,44 0,6 -10,10 -22,10 -17,0 -19,3 -10,9 10,6 7,10 -12,13 -15,3 -29,1 -32,-3 -3,-5 -10,-9 -15,-9 -6,0 -8,4 -5,8 3,5 -14,9 -36,10 -32,2 -50,9 -73,32 -17,17 -36,30 -42,30 -5,0 -22,9 -36,21 -15,11 -34,22 -44,24 -31,6 -117,37 -148,53 -16,8 -43,19 -60,23 -16,4 -70,22 -120,39 -89,31 -92,32 -240,27 -146,-4 -154,-6 -285,-50 -173,-58 -267,-97 -410,-170 -128,-65 -287,-154 -310,-173 -35,-29 -213,-119 -315,-159 -60,-24 -132,-56 -158,-70 -48,-27 -48,-27 -150,-15 -56,6 -124,20 -152,30 -27,10 -84,21 -125,24 -48,4 -105,18 -155,37 -44,17 -114,42 -155,56 -132,43 -160,88 -164,261 -2,64 -6,124 -10,133 -4,8 -2,27 3,41 6,16 6,38 1,55 -8,27 -8,27 -9,3 z"
       style="fill:#1b3c7f;fill-opacity:0.60000002"
       inkscape:label="darkest_shade" />
    <path
       id="p1B5IAO1vw"
       style="fill:#1b3c7f;fill-opacity:0.60000002"
       d="m 4597.233,4688.5951 c -50.1624,35.5243 -266.6113,178.6552 -332.9751,210.6062 -47.1874,32.6999 -79.6539,38.9429 -232.5722,131.3926 -202.271,79.8546 -240.4286,96.1982 -380.334,120.9729 -130.0498,23.0295 -318.4266,26.7847 -379.8625,25.6423 -67.5784,-1.2567 -227.2601,-16.6023 -308.2601,-41.6023 -189.8454,-45.9297 -363.92,-139.4915 -519.0039,-258.0078 -27.3269,-21.8615 -74.8069,-48.264 -112.7805,-83.7954 0,0 15.3203,50.4558 18.4555,54.218 8,9 39.3328,60.5735 77.3328,115.5735 183,270 352.0081,375.5951 425.9961,413.0078 80.1505,47.0877 415.1321,158.457 689.0039,145.9961 182.0376,-8.2825 260.4334,-21.6893 453.2606,-101.1243 113.5395,-44.3556 103.9999,-47.1166 252.0817,-115.7059 90.3079,-54.6047 115.0486,-77.8039 176.1543,-115.8583 78.2676,-51.801 98.1068,-73.3894 166.5308,-135.2678 75.7465,-63.5859 194.8718,-215.7091 289.6202,-332.031 0,0 102.3529,-187.264 102.3529,-197.0044 0,-10 25.9883,-65 57.9883,-120 31,-56 64.0078,-120.0117 73.0078,-142.0117 9,-22 8.9473,-36.9281 17.9473,-56.9281 10,-21 20.9332,-39.5429 24.0342,-47.9918 8.0256,-21.8666 26.3603,-34.4791 26.6904,-59.7481 -193.9779,192.2718 -540.8148,547.7157 -584.6685,589.6675 z M 6529.3817,5752.599 c -3.449,0.4451 -4.934,22.832 -8.145,70.9961 -3,50 -11.008,110.0039 -18.008,134.0039 -20,75 -78,186 -105,205 -15,9 -34.003,34.0039 -44.003,54.0039 -20,44 -144,190.0078 -210,248.0078 -42,36 -201.0044,121.9844 -259.0044,138.9844 -1.1106,0.3029 -2.2073,0.5794 -3.3008,0.8203 h -0.02 l -235.3126,166.4453 c 25.9314,62.0867 52.1339,130.7345 79.6485,207.7344 40,111.9997 40.9961,118.0156 40.9961,246.0156 0,130.0731 -0.01,131.9751 -36.3672,184.6289 l -16.582,140.9766 c 11.6272,-7.2784 23.3512,-13.9422 35.9375,-20.6055 133,-72 271.0146,-212 426.0149,-435 140,-200.9997 266.996,-460.0039 330.996,-674.0039 44,-149 54.004,-200.0078 64.004,-338.0078 9,-116 2.985,-176.0039 -26.015,-284.0039 -8.368,-30.2149 -12.845,-46.3827 -15.84,-45.9961 z"
       sodipodi:nodetypes="cccssccccccscccccscscsccsccccccccccscccccccss" />
  </g>
</svg>
